# xmcd
#
# Track frame offsets:
#	150
#	10947
#	23827
#	33130
#	47410
#	62278
#	75155
#	88635
#	99580
#	110609
#	121466
#	141733
#	151991
#	172320
#	182307
#	195164
#
# Disc length: 2815 seconds
#
# Revision: 0
# Processed by: cddbd v1.5.2PL0 Copyright (c) Steve Scherf et al.
# Submitted via: EZCDAudioConverter 2.2.0.1
#
DISCID=bd0afd10
DTITLE=Chorinhos e Chorões - Vol. II
DYEAR=1900
DGENRE=
TTITLE0=Dilermando Reis - Brejeiro
TTITLE1=Waldir Azevedo - Carioquinha
TTITLE2=Evandro e Seu Conjunto - Escorregando
TTITLE3=Antonio Rago - Olhos Feiticeiros
TTITLE4=Dilermando Reis - Naquele Tempo
TTITLE5=Severino Araùjo - Choros E Clarinetas
TTITLE6=Severino Araùjo - Um Chorinho Em Aldeia
TTITLE7=Saraiva - Corintiano
TTITLE8=Grupo de Choro Paulistano - Murmurando
TTITLE9=Domingos Pecci - Teu Sorriso
TTITLE10=Dilermando Reis - Lamentos
TTITLE11=Grupo de Choro Paulistano - Na Gloria
TTITLE12=Saraiva - Luis AmericanoNa Prh-3
TTITLE13=Domingos Pecci - Um Chorinho Para Dois
TTITLE14=Jose Rastelli - Pintinhos No Terreiro
TTITLE15=Paulo Moura - Carioca 150
EXTD=
EXTT0=
EXTT1=
EXTT2=
EXTT3=
EXTT4=
EXTT5=
EXTT6=
EXTT7=
EXTT8=
EXTT9=
EXTT10=
EXTT11=
EXTT12=
EXTT13=
EXTT14=
EXTT15=
PLAYORDER=
